<?xml version="1.0" encoding="UTF-8" standalone="no"?>
<!DOCTYPE svg PUBLIC "-//W3C//DTD SVG 1.1//EN" "http://www.w3.org/Graphics/SVG/1.1/DTD/svg11.dtd">
<svg width="100%" height="100%" viewBox="0 0 1088 827" version="1.1" xmlns="http://www.w3.org/2000/svg" xmlns:xlink="http://www.w3.org/1999/xlink" xml:space="preserve" xmlns:serif="http://www.serif.com/" style="fill-rule:evenodd;clip-rule:evenodd;stroke-linejoin:round;stroke-miterlimit:2;">
    <g transform="matrix(1,0,0,1,-56,-36.8532)">
        <path d="M990.987,366.241C943.167,178.201 777.934,42.463 583.985,37.019C481.451,34.141 373.556,68.147 295,187.147C154.573,399.872 303.63,546.872 407.548,616.723C457.752,650.538 502.99,691.198 541.95,737.523C612.143,820.819 747.179,924.325 908,762.147C1024.56,644.6 1022.84,491.494 990.987,366.241Z" style="fill:rgb(242,242,242);fill-rule:nonzero;"/>
    </g>
    <path d="M719.6,507.394L818,409.294L719.6,311.194L749.6,281.294L878,409.294L749.6,537.294L719.6,507.394Z" style="fill-opacity:0.1;fill-rule:nonzero;"/>
    <g transform="matrix(1,0,0,1,-56,-36.8532)">
        <path d="M494.6,453.147L534.6,453.147L534.6,413.147L494.6,413.147L494.6,453.147ZM695.4,413.147L655.4,413.147L655.4,453.147L695.4,453.147L695.4,413.147ZM575,453.147L615,453.147L615,413.147L575,413.147L575,453.147Z" style="fill-opacity:0.1;fill-rule:nonzero;"/>
    </g>
    <path d="M384.4,506.394L285.9,408.294L384.3,310.194L354.3,280.294L226,408.294L354.4,536.294L384.4,506.394Z" style="fill-opacity:0.1;fill-rule:nonzero;"/>
    <g transform="matrix(1,0,0,1,-56,-36.8532)">
        <path d="M1144,789.147C1144,805.715 900.443,863.147 600,863.147C299.557,863.147 56,805.715 56,789.147C56,772.578 299.557,803.147 600,803.147C900.443,803.147 1144,772.578 1144,789.147Z" style="fill:rgb(63,61,86);fill-rule:nonzero;"/>
    </g>
    <g transform="matrix(1,0,0,1,-56,-36.8532)">
        <path d="M1144,789.147C1144,805.715 900.443,863.147 600,863.147C299.557,863.147 56,805.715 56,789.147C56,772.578 299.557,803.147 600,803.147C900.443,803.147 1144,772.578 1144,789.147Z" style="fill-opacity:0.1;fill-rule:nonzero;"/>
    </g>
    <ellipse cx="544" cy="752.294" rx="544" ry="30" style="fill:rgb(63,61,86);"/>
    <g transform="matrix(1,0,0,1,-56,-36.8532)">
        <path d="M688.696,644.806C688.696,708.822 728.856,760.623 778.487,760.623" style="fill:rgb(63,61,86);fill-rule:nonzero;"/>
    </g>
    <g transform="matrix(1,0,0,1,-56,-36.8532)">
        <path d="M778.487,760.623C778.487,695.888 823.303,643.505 878.688,643.505" style="fill:rgb(255,92,15);fill-rule:nonzero;"/>
    </g>
    <g transform="matrix(1,0,0,1,-56,-36.8532)">
        <path d="M721.229,650.609C721.229,711.418 746.838,760.623 778.487,760.623" style="fill:rgb(255,92,15);fill-rule:nonzero;"/>
    </g>
    <g transform="matrix(1,0,0,1,-56,-36.8532)">
        <path d="M778.487,760.623C778.487,677.906 830.288,610.972 894.304,610.972" style="fill:rgb(63,61,86);fill-rule:nonzero;"/>
    </g>
    <g transform="matrix(1,0,0,1,-56,-36.8532)">
        <path d="M759.597,761.44C759.597,761.44 772.331,761.048 776.169,758.315C780.006,755.582 795.756,752.319 796.708,756.702C797.661,761.085 815.845,778.5 801.469,778.616C787.092,778.732 768.064,776.376 764.234,774.043C760.404,771.71 759.597,761.44 759.597,761.44Z" style="fill:rgb(168,168,168);fill-rule:nonzero;"/>
    </g>
    <g transform="matrix(1,0,0,1,-56,-36.8532)">
        <path d="M801.725,777.09C787.349,777.206 768.321,774.851 764.491,772.517C761.574,770.741 760.411,764.365 760.022,761.423C759.753,761.435 759.597,761.44 759.597,761.44C759.597,761.44 760.404,771.71 764.234,774.043C768.064,776.376 787.092,778.732 801.469,778.616C805.619,778.582 807.052,777.106 806.973,774.919C806.397,776.24 804.814,777.065 801.725,777.09Z" style="fill-opacity:0.2;fill-rule:nonzero;"/>
    </g>
    <g transform="matrix(1,0,0,1,-56,-36.8532)">
        <path d="M921.533,419.706C921.533,419.706 890.744,396.33 888.407,404.899C886.07,413.467 910.998,432.942 910.998,432.942L921.533,419.706Z" style="fill:rgb(255,185,185);fill-rule:nonzero;"/>
    </g>
    <g transform="matrix(1,0,0,1,-56,-36.8532)">
        <path d="M921.533,419.706C921.533,419.706 890.744,396.33 888.407,404.899C886.07,413.467 910.998,432.942 910.998,432.942L921.533,419.706Z" style="fill-opacity:0.1;fill-rule:nonzero;"/>
    </g>
    <g transform="matrix(1,0,0,1,-56,-36.8532)">
        <path d="M1023.17,345.695C1023.17,345.695 986.56,411.13 985.781,420.478C985.002,429.826 985.002,430.605 981.886,429.826C978.77,429.047 935.926,424.373 932.031,425.931C928.136,427.489 920.346,416.583 920.346,416.583C920.346,416.583 905.545,431.384 908.661,434.5C911.777,437.616 921.125,439.174 922.683,443.069C924.241,446.964 926.578,450.859 933.589,450.08C940.6,449.301 988.118,462.544 994.35,460.207C1000.58,457.87 1002.14,453.975 1005.26,453.975C1008.37,453.975 1014.6,450.859 1014.6,450.08C1014.6,449.301 1036.41,408.014 1036.41,408.014C1036.41,408.014 1062.12,351.927 1023.17,345.695Z" style="fill:rgb(208,205,225);fill-rule:nonzero;"/>
    </g>
    <g transform="matrix(1,0,0,1,-56,-36.8532)">
        <path d="M1023.17,345.695C1023.17,345.695 986.56,411.13 985.781,420.478C985.002,429.826 985.002,430.605 981.886,429.826C978.77,429.047 935.926,424.373 932.031,425.931C928.136,427.489 920.346,416.583 920.346,416.583C920.346,416.583 905.545,431.384 908.661,434.5C911.777,437.616 921.125,439.174 922.683,443.069C924.241,446.964 926.578,450.859 933.589,450.08C940.6,449.301 988.118,462.544 994.35,460.207C1000.58,457.87 1002.14,453.975 1005.26,453.975C1008.37,453.975 1014.6,450.859 1014.6,450.08C1014.6,449.301 1036.41,408.014 1036.41,408.014C1036.41,408.014 1062.12,351.927 1023.17,345.695Z" style="fill-opacity:0.1;fill-rule:nonzero;"/>
    </g>
    <g transform="matrix(1,0,0,1,-56,-36.8532)">
        <path d="M970.054,302.557C969.722,306.694 969.789,310.853 970.253,314.977C971.437,323.927 975.556,333.256 971.665,341.61C970.252,344.643 967.859,347.285 966.555,350.354C963.796,356.85 966.298,364.055 965.923,370.97C965.438,379.901 959.758,388.508 951.116,393.402C965.88,393.861 979.92,386.561 989.209,376.614C998.499,366.668 1003.67,354.33 1007.55,341.986C1009.54,336.19 1010.82,330.171 1011.36,324.064C1011.67,320.556 1011.25,317.022 1010.15,313.678C1008.78,310.412 1006.99,307.344 1004.81,304.555C1002.48,301.285 1000.09,297.95 996.657,295.517C992.43,292.52 984.279,289.51 978.672,289.946C971.793,290.481 970.343,297.783 970.054,302.557Z" style="fill:rgb(47,46,65);fill-rule:nonzero;"/>
    </g>
    <g transform="matrix(1,0,0,1,-56,-36.8532)">
        <path d="M992.792,327C992.792,327 1001.36,357.38 994.35,365.949C987.339,374.518 1036.41,362.054 1036.41,362.054C1036.41,362.054 1012.27,337.905 1023.95,322.326L992.792,327Z" style="fill:rgb(255,185,185);fill-rule:nonzero;"/>
    </g>
    <g transform="matrix(1,0,0,1,-56,-36.8532)">
        <path d="M992.792,327C992.792,327 1001.36,357.38 994.35,365.949C987.339,374.518 1036.41,362.054 1036.41,362.054C1036.41,362.054 1012.27,337.905 1023.95,322.326L992.792,327Z" style="fill-opacity:0.1;fill-rule:nonzero;"/>
    </g>
    <path d="M719.6,488.394L818,390.294L719.6,292.194L749.6,262.294L878,390.294L749.6,518.294L719.6,488.394Z" style="fill:rgb(255,92,15);fill-rule:nonzero;"/>
    <path d="M908.748,695.221L908.748,717.812L920.433,731.833L930.56,727.159L927.444,694.442L908.748,695.221Z" style="fill:rgb(255,185,185);fill-rule:nonzero;"/>
    <g transform="matrix(1,0,0,1,-56,-36.8532)">
        <path d="M969.422,753.107C969.422,753.107 966.306,742.201 960.853,749.991C955.401,757.781 949.948,774.918 946.832,775.697C943.716,776.476 921.904,800.625 943.716,800.625C965.527,800.625 972.538,790.498 972.538,790.498C972.538,790.498 994.35,781.929 994.35,780.371C994.35,778.813 991.234,749.991 989.676,749.991C988.118,749.991 987.339,755.444 983.444,755.444C979.549,755.444 969.422,753.107 969.422,753.107Z" style="fill:rgb(47,46,65);fill-rule:nonzero;"/>
    </g>
    <path d="M960.941,699.116L960.162,720.149L978.857,727.938L978.857,697.558L960.941,699.116Z" style="fill:rgb(255,185,185);fill-rule:nonzero;"/>
    <g transform="matrix(1,0,0,1,-56,-36.8532)">
        <path d="M1037.19,757.002C1037.19,757.002 1027.07,746.096 1021.62,748.433C1018.92,749.519 1016.31,750.821 1013.83,752.328C1011.34,753.834 1010.71,762.455 1009.15,771.024C1007.59,779.592 1006.81,783.487 1005.26,786.603C1003.7,789.719 1002.14,801.404 1017.72,802.962C1033.3,804.52 1037.97,795.951 1037.97,795.951L1041.87,775.697C1041.87,775.697 1040.31,757.002 1037.19,757.002Z" style="fill:rgb(47,46,65);fill-rule:nonzero;"/>
    </g>
    <g transform="matrix(1,0,0,1,-56,-36.8532)">
        <path d="M974.875,511.62C974.875,511.62 952.285,562.254 955.401,608.215C955.401,608.215 947.611,626.131 952.285,654.175C956.959,682.219 963.19,738.306 963.19,738.306C963.19,738.306 984.223,740.643 985.781,736.748C985.781,736.748 987.339,697.799 988.897,696.241C990.455,694.683 988.118,658.849 985.781,651.838C983.444,644.827 1007.59,575.497 1007.59,575.497L1001.36,489.029L974.875,511.62Z" style="fill:rgb(47,46,65);fill-rule:nonzero;"/>
    </g>
    <g transform="matrix(1,0,0,1,-56,-36.8532)">
        <path d="M974.875,511.62C974.875,511.62 952.285,562.254 955.401,608.215C955.401,608.215 947.611,626.131 952.285,654.175C956.959,682.219 963.19,738.306 963.19,738.306C963.19,738.306 984.223,740.643 985.781,736.748C985.781,736.748 987.339,697.799 988.897,696.241C990.455,694.683 988.118,658.849 985.781,651.838C983.444,644.827 1007.59,575.497 1007.59,575.497L1001.36,489.029L974.875,511.62Z" style="fill-opacity:0.1;fill-rule:nonzero;"/>
    </g>
    <g transform="matrix(1,0,0,1,-56,-36.8532)">
        <path d="M968.643,508.504L983.444,540.443C983.444,540.443 990.455,612.889 994.35,622.237C994.35,622.237 995.908,648.722 1002.92,657.291C1009.93,665.86 1015.38,741.422 1015.38,741.422C1015.38,741.422 1034.86,746.875 1036.41,741.422C1037.97,735.969 1042.65,698.577 1042.65,698.577C1042.65,698.577 1044.2,666.639 1035.64,645.606C1027.07,624.574 1045.76,549.012 1045.76,549.012C1045.76,549.012 1065.24,512.399 1037.19,482.797L968.643,508.504Z" style="fill:rgb(47,46,65);fill-rule:nonzero;"/>
    </g>
    <circle cx="953.93" cy="267.556" r="31.939" style="fill:rgb(255,185,185);"/>
    <g transform="matrix(1,0,0,1,-56,-36.8532)">
        <path d="M1039.53,352.706C1039.53,352.706 1006.03,352.706 1001.36,356.601C998.975,358.872 995.178,358.872 992.792,356.601C990.406,354.331 981.107,357.38 977.991,366.728C974.875,376.076 965.527,388.54 965.527,388.54C965.527,388.54 951.506,398.667 959.295,425.152C967.085,451.638 960.853,494.482 960.853,494.482C960.853,494.482 954.622,503.83 960.853,507.725C967.085,511.62 969.422,513.178 968.643,516.294C967.864,519.41 1039.53,490.587 1039.53,485.134C1039.53,479.681 1037.97,475.008 1039.53,472.671C1041.09,470.334 1042.65,466.439 1041.09,462.544C1039.53,458.649 1042.65,457.87 1041.87,453.975C1041.09,450.08 1045.76,421.257 1048.88,408.793C1052,396.33 1051.22,353.485 1039.53,352.706Z" style="fill:rgb(208,205,225);fill-rule:nonzero;"/>
    </g>
    <g transform="matrix(1,0,0,1,-56,-36.8532)">
        <path d="M921.533,429.054C921.533,429.054 890.744,405.678 888.407,414.246C886.07,422.815 910.998,442.29 910.998,442.29L921.533,429.054Z" style="fill:rgb(255,185,185);fill-rule:nonzero;"/>
    </g>
    <g transform="matrix(1,0,0,1,-56,-36.8532)">
        <path d="M1023.17,356.601C1023.17,356.601 986.56,422.036 985.781,431.384C985.002,440.732 985.002,441.511 981.886,440.732C978.77,439.953 935.926,435.279 932.031,436.837C928.136,438.395 920.346,427.489 920.346,427.489C920.346,427.489 905.545,442.29 908.661,445.406C911.777,448.522 921.125,450.08 922.683,453.975C924.241,457.87 926.578,461.765 933.589,460.986C940.6,460.207 988.118,473.45 994.35,471.113C1000.58,468.776 1002.14,464.881 1005.26,464.881C1008.37,464.881 1014.6,461.765 1014.6,460.986C1014.6,460.207 1036.41,418.92 1036.41,418.92C1036.41,418.92 1062.12,362.833 1023.17,356.601Z" style="fill:rgb(208,205,225);fill-rule:nonzero;"/>
    </g>
    <g transform="matrix(1,0,0,1,-56,-36.8532)">
        <path d="M994.114,324.814C993.672,321.651 992.052,318.781 991.221,315.697C989.907,310.712 990.686,305.4 993.375,301.002C997.956,293.603 1006.95,290.325 1013.22,284.293C1013.35,287.366 1015.49,289.992 1017.84,291.968C1020.2,293.944 1022.9,295.547 1024.9,297.887C1026.81,300.356 1028.21,303.188 1029.01,306.211C1030.24,309.714 1030.79,313.419 1030.63,317.128C1030.45,320.872 1028.74,324.381 1025.9,326.83C1023.56,328.676 1020.3,329.731 1019.17,332.486C1018.73,333.863 1018.6,335.323 1018.79,336.756C1019.33,345.327 1019.83,354.05 1017.81,362.396C1015.79,370.743 1010.85,378.807 1003.1,382.507C1009.47,382.959 1015.97,383.399 1022.15,381.792C1028.33,380.184 1034.23,376.136 1036.36,370.118C1037.41,367.149 1037.51,363.847 1039.01,361.074C1042.79,354.056 1053.22,353.736 1058.35,347.632C1060.4,345.189 1061.39,342.041 1062.13,338.937C1066.45,320.672 1063.41,301.278 1056.83,283.702C1054.55,277.644 1051.73,271.545 1046.86,267.287C1042.71,263.664 1037.42,261.667 1032.18,259.962C1024.54,257.474 1016.67,255.436 1008.64,255.173C1005.15,254.968 1001.66,255.377 998.309,256.38C995.004,257.573 991.929,259.325 989.217,261.559C976.637,271.347 968.073,286.99 969.209,302.889C969.897,312.508 973.973,321.612 979.209,329.711C981.04,332.544 985.367,338.584 989.389,336.803C993.037,335.187 994.593,328.23 994.114,324.814Z" style="fill:rgb(47,46,65);fill-rule:nonzero;"/>
    </g>
    <g transform="matrix(1,0,0,1,-56,-36.8532)">
        <path d="M494.6,434.147L534.6,434.147L534.6,394.147L494.6,394.147L494.6,434.147ZM695.4,394.147L655.4,394.147L655.4,434.147L695.4,434.147L695.4,394.147ZM575,434.147L615,434.147L615,394.147L575,394.147L575,434.147Z" style="fill:rgb(255,92,15);fill-rule:nonzero;"/>
    </g>
    <ellipse cx="206.206" cy="211.839" rx="33.657" ry="26.252" style="fill:rgb(47,46,65);"/>
    <g transform="matrix(1,0,0,1,-56,-36.8532)">
        <path d="M267.928,429.429C267.928,429.429 298.219,431.449 303.604,427.41C308.989,423.371 331.876,432.795 333.895,438.18C335.914,443.565 301.584,444.238 296.199,444.238C290.814,444.238 265.235,452.316 265.235,452.316L267.928,429.429Z" style="fill:rgb(160,97,106);fill-rule:nonzero;"/>
    </g>
    <g transform="matrix(1,0,0,1,-56,-36.8532)">
        <path d="M205.552,742.992C205.552,742.992 191.435,778.591 198.801,782.887C206.166,787.184 283.502,784.115 283.502,784.115C283.502,784.115 296.392,776.136 281.661,770.612C281.661,770.612 269.385,769.998 261.406,765.088C253.427,760.177 244.22,750.971 244.22,750.971C244.22,750.971 243.607,737.467 238.696,740.536C235.727,742.493 233.719,745.616 233.172,749.129L205.552,742.992Z" style="fill:rgb(47,46,65);fill-rule:nonzero;"/>
    </g>
    <g transform="matrix(1,0,0,1,-56,-36.8532)">
        <path d="M205.552,742.992C205.552,742.992 191.435,778.591 198.801,782.887C206.166,787.184 283.502,784.115 283.502,784.115C283.502,784.115 296.392,776.136 281.661,770.612C281.661,770.612 269.385,769.998 261.406,765.088C253.427,760.177 244.22,750.971 244.22,750.971C244.22,750.971 243.607,737.467 238.696,740.536C235.727,742.493 233.719,745.616 233.172,749.129L205.552,742.992Z" style="fill-opacity:0.1;fill-rule:nonzero;"/>
    </g>
    <path d="M384.4,487.394L285.9,389.294L384.3,291.194L354.3,261.294L226,389.294L354.4,517.294L384.4,487.394Z" style="fill:rgb(255,92,15);fill-rule:nonzero;"/>
    <g transform="matrix(1,0,0,1,-56,-36.8532)">
        <path d="M183.785,753.882C183.785,753.882 168.303,792.924 176.381,797.636C184.458,802.348 269.274,798.982 269.274,798.982C269.274,798.982 283.41,790.231 267.254,784.173C267.254,784.173 253.792,783.5 245.041,778.115C236.29,772.73 226.193,762.633 226.193,762.633C226.193,762.633 225.52,747.824 220.135,751.189C216.878,753.335 214.676,756.76 214.077,760.613L183.785,753.882Z" style="fill:rgb(47,46,65);fill-rule:nonzero;"/>
    </g>
    <g transform="matrix(1,0,0,1,-56,-36.8532)">
        <path d="M263.216,506.167L253.792,590.983C253.792,590.983 250.426,631.371 240.329,640.122C240.329,640.122 240.329,652.911 236.963,656.95L232.251,710.128C232.251,710.128 238.983,729.649 238.309,733.015C237.636,736.38 241.002,747.151 240.329,748.497C239.656,749.843 208.018,748.497 208.018,748.497L214.75,640.122L235.617,489.339L263.216,506.167Z" style="fill:rgb(47,46,65);fill-rule:nonzero;"/>
    </g>
    <g transform="matrix(1,0,0,1,-56,-36.8532)">
        <path d="M263.216,506.167L253.792,590.983C253.792,590.983 250.426,631.371 240.329,640.122C240.329,640.122 240.329,652.911 236.963,656.95L232.251,710.128C232.251,710.128 238.983,729.649 238.309,733.015C237.636,736.38 241.002,747.151 240.329,748.497C239.656,749.843 208.018,748.497 208.018,748.497L214.75,640.122L235.617,489.339L263.216,506.167Z" style="fill-opacity:0.1;fill-rule:nonzero;"/>
    </g>
    <g transform="matrix(1,0,0,1,-56,-36.8532)">
        <path d="M246.387,503.475C246.387,503.475 238.983,572.808 235.617,587.617C233.501,597.369 232.15,607.272 231.578,617.235C231.006,627.198 230.905,638.775 224.847,644.834C221.265,648.38 219.314,653.259 219.462,658.296C219.61,663.334 213.403,726.283 216.769,734.361C220.135,742.439 223.5,749.17 220.135,754.555C216.769,759.94 179.746,759.94 179.746,755.901C179.746,751.863 179.746,748.497 177.727,746.477C175.708,744.458 177.727,731.668 177.727,731.668C177.727,731.668 169.649,671.759 177.054,654.258C184.458,636.756 187.824,588.963 187.824,588.963C187.824,588.963 182.439,534.439 175.708,525.688C168.976,516.937 177.054,485.973 177.054,485.973L246.387,503.475Z" style="fill:rgb(47,46,65);fill-rule:nonzero;"/>
    </g>
    <g transform="matrix(1,0,0,1,-56,-36.8532)">
        <path d="M227.436,288.165C228.218,289.948 230.091,290.94 231.796,291.88C241.679,297.325 249.952,305.219 258.103,313.022C256.069,306.131 256.503,298.743 259.328,292.137C260.301,289.884 261.576,287.461 260.881,285.107C260.369,283.376 258.895,282.128 257.467,281.023C254.142,278.451 250.666,276.08 247.058,273.921C244.537,272.413 239.355,268.399 236.463,268.836C236.311,272.744 236.232,276.238 234.521,279.89C234.115,280.757 227.735,288.847 227.436,288.165Z" style="fill:rgb(160,97,106);fill-rule:nonzero;"/>
    </g>
    <circle cx="205.869" cy="232.369" r="27.599" style="fill:rgb(160,97,106);"/>
    <g transform="matrix(1,0,0,1,-56,-36.8532)">
        <path d="M263.216,334.517C263.216,334.517 267.928,310.957 254.465,302.88C241.002,294.802 225.52,285.378 225.52,285.378C225.52,285.378 220.808,284.705 218.788,294.802C218.788,294.802 180.42,302.206 176.381,338.556C172.342,374.905 179.073,428.083 179.073,428.083C179.073,428.083 173.015,474.53 165.611,499.436C165.611,499.436 159.552,504.821 186.478,496.743C213.403,488.666 260.523,519.63 260.523,519.63C260.523,519.63 265.235,514.918 265.235,511.552C265.235,508.187 270.62,488.666 270.62,488.666C270.62,488.666 275.332,405.87 277.351,396.446C279.371,387.022 269.274,335.863 263.216,334.517Z" style="fill:rgb(87,90,137);fill-rule:nonzero;"/>
    </g>
    <g transform="matrix(1,0,0,1,-56,-36.8532)">
        <path d="M255.365,272.066C257.023,271.147 258.882,270.652 260.778,270.624C262.675,270.596 264.529,270.044 266.132,269.029C268.739,267.027 268.93,263.16 270.837,260.483C273.599,256.607 279.107,256.141 283.861,256.335C286.769,256.453 289.901,256.627 292.35,255.054C294.864,253.44 296.003,250.397 296.851,247.532C297.853,244.144 298.502,240.001 296.018,237.488C294.293,235.743 291.57,235.398 289.654,233.866C287.667,232.277 286.85,229.691 285.77,227.388C284.541,224.581 282.597,222.146 280.132,220.326C276.518,217.815 271.901,217.252 267.5,217.299C263.098,217.346 258.679,217.925 254.31,217.385C250.731,216.942 247.163,215.752 243.595,216.279C239.05,216.952 235.289,220.381 233.049,224.393C230.809,228.406 229.848,232.986 228.916,237.485L226.381,249.724C225.595,253.519 224.806,257.416 225.413,261.245C226.671,269.181 233.69,275.49 234.173,283.511C235.109,279.016 238.248,275.282 242.516,273.59C243.043,273.332 243.642,273.26 244.216,273.384C244.913,273.607 245.321,274.303 245.761,274.888C246.914,276.421 250.536,278.747 252.59,277.66C254.427,276.687 253.055,273.632 255.365,272.066Z" style="fill:rgb(47,46,65);fill-rule:nonzero;"/>
    </g>
    <g transform="matrix(1,0,0,1,-56,-36.8532)">
        <path d="M185.805,397.792C185.805,397.792 181.093,427.41 200.614,424.718C200.614,424.718 210.711,423.371 212.057,424.718C213.403,426.064 263.216,417.313 269.947,409.909C269.947,409.909 278.025,407.216 282.063,411.255C286.102,415.294 326.491,419.332 314.374,407.216C302.258,395.099 283.41,392.407 283.41,392.407L257.83,393.753C257.83,393.753 244.368,397.792 236.29,393.753C228.212,389.714 205.326,391.061 205.326,391.061L185.805,397.792Z" style="fill:rgb(160,97,106);fill-rule:nonzero;"/>
    </g>
    <g transform="matrix(1,0,0,1,-56,-36.8532)">
        <path d="M213.403,304.226C213.403,304.226 183.112,307.591 183.112,351.345L183.112,407.216C183.112,407.216 199.941,399.811 203.306,400.485C206.672,401.158 220.135,391.734 220.135,391.734C220.135,391.734 235.617,355.384 234.271,345.287C232.924,335.19 233.598,305.572 213.403,304.226Z" style="fill:rgb(87,90,137);fill-rule:nonzero;"/>
    </g>
    <ellipse cx="205.869" cy="215.204" rx="25.916" ry="13.463" style="fill:rgb(47,46,65);"/>
    <ellipse cx="181.636" cy="217.56" rx="9.087" ry="22.55" style="fill:rgb(47,46,65);"/>
</svg>
